<?xml version="1.0" encoding="utf-8"?>
<!-- Generator: Adobe Illustrator 25.1.0, SVG Export Plug-In . SVG Version: 6.00 Build 0)  -->
<svg version="1.1" id="Camada_1" xmlns="http://www.w3.org/2000/svg" xmlns:xlink="http://www.w3.org/1999/xlink" x="0px" y="0px"
	 viewBox="0 0 71.8 24" style="enable-background:new 0 0 71.8 24;" xml:space="preserve">
<style type="text/css">
	.st0{fill:#FFFFFF;}
</style>
<g id="Camada_2_1_">
	<g id="livetype">
		<path d="M5.1,23.5H4.5c-0.4,0-0.7,0-1.1-0.1c-0.3-0.1-0.7-0.2-1-0.3c-0.3-0.2-0.6-0.4-0.8-0.6c-0.2-0.3-0.4-0.5-0.6-0.8
			c-0.2-0.3-0.3-0.7-0.3-1c-0.1-0.4-0.1-0.8-0.1-1.1c0-0.1,0-0.5,0-0.5V5.1c0,0,0-0.4,0-0.5c0-0.4,0-0.8,0.1-1.1
			c0.1-0.3,0.2-0.7,0.3-1c0.2-0.3,0.4-0.6,0.6-0.8C1.8,1.3,2.1,1.1,2.4,1c0.3-0.2,0.7-0.3,1-0.3c0.4-0.1,0.7-0.1,1.1-0.1h62.7
			c0.4,0,0.7,0,1.1,0.1c0.3,0.1,0.7,0.2,1,0.3c0.9,0.5,1.6,1.4,1.8,2.4c0.1,0.4,0.1,0.8,0.1,1.1v14.4c0,0.2,0,0.4,0,0.6
			c0,0.4,0,0.7-0.1,1.1c-0.1,0.3-0.2,0.7-0.3,1c-0.2,0.3-0.4,0.6-0.6,0.8c-0.2,0.2-0.5,0.5-0.8,0.6c-0.3,0.2-0.7,0.3-1,0.3
			c-0.4,0.1-0.7,0.1-1.1,0.1L5.1,23.5L5.1,23.5z"/>
		<g id="_Group_">
			<g id="_Group_2">
				<g id="_Group_3">
					<path id="_Path_" class="st0" d="M14.9,12.2c0-1,0.6-2,1.4-2.5c-0.6-0.8-1.4-1.3-2.4-1.3c-1-0.1-2,0.6-2.5,0.6
						s-1.3-0.6-2.2-0.6c-1.1,0-2.1,0.7-2.7,1.6c-1.2,2-0.3,5,0.8,6.6c0.6,0.8,1.2,1.7,2,1.6s1.1-0.5,2.2-0.5s1.3,0.5,2.1,0.5
						s1.5-0.8,2-1.6c0.4-0.6,0.7-1.2,0.9-1.9C15.5,14.4,14.9,13.3,14.9,12.2z"/>
					<path id="_Path_2" class="st0" d="M13.2,7.3c0.5-0.6,0.7-1.3,0.7-2.1c-0.7,0.1-1.4,0.4-1.9,1c-0.5,0.6-0.7,1.3-0.7,2
						C12,8.2,12.7,7.9,13.2,7.3z"/>
				</g>
			</g>
			<path class="st0" d="M25.4,16.3h-2.8l-0.7,2h-1.2l2.7-7.4h1.2l2.7,7.4H26L25.4,16.3z M22.8,15.4h2.2L24,12.1l0,0L22.8,15.4z"/>
			<path class="st0" d="M33.1,15.6c0,1.7-0.9,2.8-2.3,2.8c-0.7,0-1.4-0.3-1.7-1l0,0v2.7H28v-7.2h1v0.9l0,0c0.4-0.6,1-1,1.7-1
				C32.2,12.8,33.1,13.9,33.1,15.6z M31.9,15.6c0-1.1-0.6-1.8-1.4-1.8s-1.4,0.7-1.4,1.8s0.6,1.8,1.4,1.8S31.9,16.7,31.9,15.6z"/>
			<path class="st0" d="M39,15.6c0,1.7-0.9,2.8-2.3,2.8c-0.7,0-1.4-0.3-1.7-1l0,0v2.7h-1.1v-7.2H35v0.9l0,0c0.3-0.6,1-1,1.7-1
				C38.1,12.8,39,13.9,39,15.6z M37.9,15.6c0-1.1-0.6-1.8-1.4-1.8s-1.4,0.7-1.4,1.8s0.6,1.8,1.4,1.8S37.9,16.7,37.9,15.6z"/>
			<path class="st0" d="M43,16.2c0.1,0.7,0.8,1.2,1.8,1.2s1.6-0.4,1.6-1.2S46,15.4,45,15.1l-1-0.2c-1.4-0.3-2-1-2-2
				c0-1.3,1.1-2.2,2.7-2.2s2.7,0.9,2.7,2.2h-1.1c-0.1-0.7-0.7-1.2-1.6-1.2s-1.5,0.5-1.5,1.1s0.4,0.8,1.3,1.1l0.8,0.2
				c1.5,0.4,2.2,1,2.2,2.1c0,1.4-1.1,2.3-2.9,2.3s-2.8-0.9-2.8-2.2L43,16.2z"/>
			<path class="st0" d="M50,11.6v1.3h1v0.9h-1v3c0,0.5,0.2,0.7,0.7,0.7H51v0.9c-0.2,0-0.4,0-0.6,0c-1.1,0-1.5-0.4-1.5-1.5v-3.1h-0.8
				v-0.9h0.8v-1.3H50z"/>
			<path class="st0" d="M51.6,15.6c-0.1-1.4,1-2.6,2.4-2.7c1.4-0.1,2.6,1,2.7,2.4c0,0.1,0,0.2,0,0.3c0.1,1.4-1,2.6-2.4,2.7
				c-1.4,0.1-2.6-1-2.7-2.4C51.6,15.8,51.6,15.7,51.6,15.6z M55.6,15.6c0-1.2-0.5-1.9-1.4-1.9s-1.4,0.7-1.4,1.9s0.5,1.9,1.4,1.9
				S55.6,16.8,55.6,15.6z"/>
			<path class="st0" d="M57.7,12.9h1.1v0.9l0,0c0.1-0.6,0.7-1,1.3-1c0.1,0,0.3,0,0.4,0v1c-0.2,0-0.3-0.1-0.5-0.1
				c-0.6,0-1.1,0.4-1.2,1c0,0,0,0,0,0c0,0.1,0,0.1,0,0.2v3.2h-1.1V12.9z"/>
			<path class="st0" d="M65.6,16.7c-0.3,1.1-1.3,1.8-2.3,1.7c-1.4,0.1-2.5-1-2.6-2.4c0-0.1,0-0.3,0-0.4c-0.2-1.4,0.8-2.6,2.2-2.8
				c0.1,0,0.2,0,0.3,0c1.3,0,2.4,1,2.5,2.3c0,0.1,0,0.2,0,0.4v0.4h-3.8v0.1c-0.1,0.8,0.5,1.5,1.3,1.5c0,0,0,0,0,0h0.2
				c0.5,0.1,1.1-0.3,1.2-0.8L65.6,16.7z M61.8,15.1h2.7c0-0.7-0.5-1.3-1.2-1.4c0,0,0,0,0,0h-0.1C62.5,13.7,61.8,14.3,61.8,15.1z"/>
		</g>
		<g id="_Group_4">
			<path class="st0" d="M21.4,8.8V5.2h1.4c0.7,0,1.1,0.3,1.1,0.9c0,0.4-0.3,0.7-0.6,0.8l0,0c0.5,0,0.8,0.4,0.8,0.9
				c0,0.6-0.5,1-1.2,1L21.4,8.8z M22,6.8h0.6c0.5,0,0.8-0.2,0.8-0.5s-0.2-0.5-0.6-0.5H22V6.8z M22.8,8.3c0.5,0,0.8-0.2,0.8-0.6
				s-0.3-0.6-0.8-0.6H22v1.2H22.8z"/>
			<path class="st0" d="M24.6,8.1c0-0.5,0.4-0.8,1-0.8h0.7V7c0-0.3-0.2-0.4-0.5-0.4s-0.5,0.1-0.6,0.3h-0.5c0-0.5,0.5-0.8,1.1-0.8
				s1.1,0.3,1.1,0.9v1.8h-0.5V8.4h0c-0.2,0.3-0.5,0.4-0.8,0.4C25.1,8.9,24.7,8.6,24.6,8.1C24.7,8.1,24.6,8.1,24.6,8.1z M26.4,7.8
				V7.6h-0.7c-0.4,0-0.5,0.2-0.5,0.4c0,0.2,0.2,0.4,0.5,0.4C26,8.4,26.3,8.1,26.4,7.8L26.4,7.8z"/>
			<path class="st0" d="M27.7,5.3C27.7,5.1,27.8,5,28,5c0.2,0,0.3,0.2,0.3,0.4c0,0.1-0.1,0.3-0.3,0.3l0,0
				C27.8,5.7,27.7,5.6,27.7,5.3C27.7,5.4,27.7,5.4,27.7,5.3L27.7,5.3z M27.8,6.1h0.5v2.7h-0.5V6.1z"/>
			<path class="st0" d="M30.1,7.9l-0.6,1H29l0.9-1.3L29,6.2h0.6l0.6,1h0l0.6-1h0.6l-0.9,1.3l0.9,1.4h-0.6L30.1,7.9L30.1,7.9z"/>
			<path class="st0" d="M31.8,8.1c0-0.5,0.4-0.8,1-0.8h0.7V7c0-0.3-0.2-0.4-0.5-0.4s-0.5,0.1-0.6,0.3h-0.5c0-0.5,0.5-0.8,1.1-0.8
				s1.1,0.3,1.1,0.9v1.8h-0.5V8.4h0c-0.2,0.3-0.5,0.4-0.8,0.4C32.3,8.9,31.9,8.6,31.8,8.1C31.8,8.1,31.8,8.1,31.8,8.1z M33.6,7.8
				V7.6h-0.7c-0.4,0-0.5,0.2-0.5,0.4c0,0.2,0.2,0.4,0.5,0.4C33.2,8.4,33.5,8.1,33.6,7.8L33.6,7.8z"/>
			<path class="st0" d="M34.9,6.1h0.5v0.4l0,0c0.1-0.3,0.4-0.5,0.7-0.5c0.1,0,0.2,0,0.2,0v0.5c-0.1,0-0.2,0-0.3,0
				c-0.4,0-0.7,0.2-0.7,0.6v1.6h-0.5L34.9,6.1z"/>
			<path class="st0" d="M38.5,6.1H39v0.4l0,0c0.1-0.3,0.5-0.5,0.8-0.5c0.5,0,0.9,0.3,0.9,0.8c0,0.1,0,0.1,0,0.2v1.7h-0.5V7.2
				c0-0.4-0.2-0.7-0.6-0.7c-0.3,0-0.6,0.2-0.6,0.6c0,0,0,0,0,0v1.7h-0.5L38.5,6.1z"/>
			<path class="st0" d="M41.5,8.1c0-0.5,0.4-0.8,1-0.8h0.7V7c0-0.3-0.2-0.4-0.6-0.4s-0.5,0.1-0.6,0.3h-0.5c0-0.5,0.5-0.8,1.1-0.8
				s1.1,0.3,1.1,0.9v1.8h-0.5V8.4l0,0c-0.2,0.3-0.5,0.4-0.8,0.4C42,8.9,41.6,8.6,41.5,8.1C41.5,8.1,41.5,8.1,41.5,8.1
				C41.5,8.1,41.5,8.1,41.5,8.1z M43.2,7.8V7.6h-0.7C42.2,7.6,42,7.7,42,8c0,0.2,0.2,0.4,0.5,0.4C42.9,8.4,43.2,8.1,43.2,7.8
				L43.2,7.8z"/>
		</g>
	</g>
</g>
</svg>
